# xmcd
#
# Track frame offsets:
#	150
#	11930
#	26093
#	40476
#	53938
#	69659
#	85245
#	101870
#	114637
#	128303
#	144135
#	158111
#	169940
#	184266
#
# Disc length: 2668 seconds
#
# Revision: 1
# Processed by: cddbd v1.5.2PL0 Copyright (c) Steve Scherf et al.
# Submitted via: audiograbber 1.83.01
#
DISCID=c10a6a0e
DTITLE=Jim Hendricks - Rocky Top Country Christmas
DYEAR=1996
DGENRE=Country
TTITLE0=Joy To The World
TTITLE1=Good King Wenceslas
TTITLE2=It Came Upon A Midnight Clear
TTITLE3=Mary's Boy Child
TTITLE4=White Christmas
TTITLE5=Winter Wonderland
TTITLE6=Jingle Bells
TTITLE7=Angels We Have Heard On High
TTITLE8=The Wassail Song
TTITLE9=The First Noel
TTITLE10=O Come All Ye Faithful
TTITLE11=God Rest Ye Merry Gentlemen
TTITLE12=Santa Claus Is Coming To Town
TTITLE13=O Christmas Tree
EXTD=
EXTT0=
EXTT1=
EXTT2=
EXTT3=
EXTT4=
EXTT5=
EXTT6=
EXTT7=
EXTT8=
EXTT9=
EXTT10=
EXTT11=
EXTT12=
EXTT13=
PLAYORDER=
